<?xml version="1.0" encoding="UTF-8" standalone="no"?>
<!DOCTYPE svg PUBLIC "-//W3C//DTD SVG 1.1//EN" "http://www.w3.org/Graphics/SVG/1.1/DTD/svg11.dtd">
<svg width="100%" height="100%" viewBox="0 0 1500 1500" version="1.1" xmlns="http://www.w3.org/2000/svg" xmlns:xlink="http://www.w3.org/1999/xlink" xml:space="preserve" xmlns:serif="http://www.serif.com/" style="fill-rule:evenodd;clip-rule:evenodd;stroke-linejoin:round;stroke-miterlimit:2;">
    <g id="SvgjsG22754" transform="matrix(16.6667,0,0,-16.6667,-83.3333,1583.33)">
        <path d="M69.286,11.429C79.92,11.429 88.572,20.081 88.572,30.715L88.572,69.286C88.572,79.92 79.92,88.572 69.286,88.572L30.714,88.572C20.08,88.572 11.428,79.92 11.428,69.286L11.428,30.714C11.428,20.08 20.08,11.428 30.714,11.428L69.286,11.428M69.286,5L30.714,5C16.513,5 5,16.513 5,30.714L5,69.285C5,83.487 16.513,95 30.714,95L69.285,95C83.487,95 95,83.487 95,69.286L95,30.714C95,16.513 83.487,5 69.286,5Z" style="fill-rule:nonzero;"/>
        <circle cx="50" cy="50" r="6.429"/>
    </g>
</svg>
