<?xml version="1.0" standalone="no"?>
<!DOCTYPE svg PUBLIC "-//W3C//DTD SVG 20010904//EN"
 "http://www.w3.org/TR/2001/REC-SVG-20010904/DTD/svg10.dtd">
<svg version="1.0" xmlns="http://www.w3.org/2000/svg"
 width="512.000000pt" height="512.000000pt" viewBox="0 0 512.000000 512.000000"
 preserveAspectRatio="xMidYMid meet">

<g transform="translate(0.000000,512.000000) scale(0.100000,-0.100000)"
fill="#000000" stroke="none">
<path d="M1340 4989 c-175 -20 -332 -69 -500 -155 -315 -161 -573 -461 -684
-794 -76 -228 -71 -130 -71 -1520 l0 -1245 23 -104 c114 -506 450 -889 928
-1054 220 -76 132 -72 1519 -72 1151 0 1246 1 1328 18 294 60 527 185 737 396
168 170 273 337 345 554 73 220 70 153 70 1502 0 1130 -1 1216 -18 1305 -91
471 -380 849 -801 1045 -105 49 -191 78 -326 108 -93 20 -115 21 -1285 23
-655 1 -1224 -2 -1265 -7z m2555 -381 c408 -120 699 -440 770 -847 23 -130 22
-2381 -1 -2501 -75 -396 -383 -728 -769 -830 -149 -39 -237 -41 -1410 -37
-1040 3 -1136 5 -1205 21 -424 100 -726 402 -826 826 -16 69 -18 165 -22 1220
-2 762 0 1176 7 1236 53 459 388 827 841 925 80 17 155 18 1305 16 l1220 -2
90 -27z"/>
<path d="M2455 2857 c-101 -34 -172 -97 -217 -194 -70 -148 -23 -331 110 -428
180 -132 436 -67 531 135 22 47 26 68 26 150 0 114 -18 163 -91 240 -67 72
-137 103 -238 107 -49 2 -97 -2 -121 -10z"/>
</g>
</svg>
